# xmcd
#
# Track frame offsets:
#	150
#	23917
#	45225
#	65732
#	83355
#	104940
#	127342
#	148335
#	169322
#	190332
#	208630
#	233335
#
# Disc length: 3375 seconds
#
# Revision: 1
# Processed by: cddbd v1.5.1PL0 Copyright (c) Steve Scherf et al.
# Submitted via: CDex 1.50Beta5
#
DISCID=ae0d2d0c
DTITLE=北島三郎 - 北島三郎決定盤
DYEAR=1993
DGENRE=World
TTITLE0=宴
TTITLE1=北の漁場
TTITLE2=風雪ながれ旅
TTITLE3=愛の道
TTITLE4=山
TTITLE5=北の大地
TTITLE6=男道
TTITLE7=川
TTITLE8=舵
TTITLE9=与作
TTITLE10=城
TTITLE11=まつり
EXTD=
EXTT0=
EXTT1=
EXTT2=
EXTT3=
EXTT4=
EXTT5=
EXTT6=
EXTT7=
EXTT8=
EXTT9=
EXTT10=
EXTT11=
PLAYORDER=
